PathFileType  4	(X/Y/Z) E:\AxonAIRepo\axonai_vps\Data\session_74dd741a74\MarkerData\OpenPose_default\PreAugmentation
DataRate	CameraRate	NumFrames	NumMarkers	Units	OrigDataRate	OrigDataStartFrame	OrigNumFrames
60.0	60.0	12	20	m	60.0	349	398
Frame#	Time	Neck			RShoulder			RElbow			RWrist			LShoulder			LElbow			LWrist			midHip			RHip			RKnee			RAnkle			LHip			LKnee			LAnkle			LBigToe			LSmallToe			LHeel			RBigToe			RSmallToe			RHeel			
		X1	Y1	Z1	X2	Y2	Z2	X3	Y3	Z3	X4	Y4	Z4	X5	Y5	Z5	X6	Y6	Z6	X7	Y7	Z7	X8	Y8	Z8	X9	Y9	Z9	X10	Y10	Z10	X11	Y11	Z11	X12	Y12	Z12	X13	Y13	Z13	X14	Y14	Z14	X15	Y15	Z15	X16	Y16	Z16	X17	Y17	Z17	X18	Y18	Z18	X19	Y19	Z19	X20	Y20	Z20	

349	5.8000000	-0.7917300	1.3932000	0.2598700	-0.8232900	1.3907800	0.4479700	-0.7818700	1.0805100	0.5468800	-0.6118700	0.8141200	0.5448300	-0.7585400	1.3927200	0.0647600	-0.7385400	1.0860400	-0.0314600	-0.7083600	0.7979300	-0.0386000	-0.7090300	0.8242900	0.2612600	-0.6958600	0.8238900	0.3697700	-0.6905200	0.3957200	0.3321800	-0.7651600	-0.0555300	0.2840000	-0.7108600	0.8174500	0.1430700	-0.7037900	0.4080500	0.1381200	-1.2872800	-0.0230500	0.1954100	-0.9900100	-0.0654500	0.1310800	-1.1207900	-0.0751700	0.1185200	-1.3703700	-0.0550400	0.2125900	-0.6299300	-0.1051600	0.2462800	-0.6317300	-0.1043000	0.3297600	-0.7852100	-0.0771200	0.2558200
350	5.8166667	-0.7740300	1.3908800	0.2620100	-0.7941800	1.3890600	0.4474500	-0.7368000	1.0833500	0.5491800	-0.5919200	0.8168300	0.5469000	-0.7605400	1.3920600	0.0646500	-0.7393100	1.0854500	-0.0317800	-0.6976100	0.7983600	-0.0412400	-0.7027400	0.8216500	0.2608200	-0.6800300	0.8225400	0.3703800	-0.6771800	0.3967000	0.3333300	-0.7558600	-0.0520500	0.2841700	-0.7017800	0.8166400	0.1412700	-0.6787000	0.4091200	0.1391200	-1.2542400	-0.0319100	0.1838900	-0.9940800	-0.0897700	0.1348900	-1.0766100	-0.0867000	0.1166400	-1.3292200	-0.0552900	0.1939900	-0.6395600	-0.1085700	0.2481800	-0.6313700	-0.1043800	0.3298500	-0.7752700	-0.0751400	0.2521900
351	5.8333333	-0.7592200	1.3906100	0.2640300	-0.7669100	1.3888700	0.4486800	-0.6916100	1.0843500	0.5506900	-0.5729400	0.8199200	0.5463000	-0.7590700	1.3922200	0.0650200	-0.7370700	1.0866300	-0.0313700	-0.6906600	0.7987700	-0.0429500	-0.6957400	0.8216900	0.2583600	-0.6694900	0.8234900	0.3708300	-0.6700500	0.3980800	0.3337200	-0.7592300	-0.0525100	0.2855200	-0.6967800	0.8187600	0.1404100	-0.6576100	0.4096900	0.1376200	-1.2243500	-0.0006700	0.1583400	-0.9830700	-0.1023300	0.1376200	-1.0698600	-0.0870300	0.1081600	-1.3373200	-0.0511300	0.1758600	-0.6506100	-0.1128400	0.2516000	-0.6313700	-0.1053100	0.3301300	-0.7646000	-0.0741100	0.2514700
352	5.8500000	-0.7444000	1.3929600	0.2661900	-0.7421100	1.3898900	0.4518500	-0.6576100	1.0864000	0.5519800	-0.5566700	0.8226400	0.5446300	-0.7479400	1.3933500	0.0658700	-0.7294400	1.0886700	-0.0294900	-0.6890100	0.8003100	-0.0432800	-0.6867100	0.8243100	0.2550400	-0.6675500	0.8252000	0.3709800	-0.6654500	0.4019600	0.3339900	-0.7657800	-0.0553200	0.2871900	-0.6832800	0.8234600	0.1399200	-0.6416600	0.4120300	0.1365100	-1.1620100	0.0040700	0.1423100	-0.9607200	-0.0942300	0.1326800	-1.0646000	-0.0973800	0.0983400	-1.3736300	-0.0610900	0.1616700	-0.6585700	-0.1155000	0.2539000	-0.6327800	-0.1046600	0.3300000	-0.7509200	-0.0714700	0.2523300
353	5.8666667	-0.7296400	1.3960200	0.2673100	-0.7172300	1.3912600	0.4553700	-0.6326800	1.0898100	0.5522600	-0.5471000	0.8252000	0.5439100	-0.7275600	1.3936700	0.0659200	-0.7186300	1.0914000	-0.0268800	-0.6885900	0.8006500	-0.0430100	-0.6780700	0.8294900	0.2532300	-0.6689600	0.8282800	0.3709800	-0.6562700	0.4082500	0.3347400	-0.7720500	-0.0567500	0.2891000	-0.6628600	0.8306900	0.1392200	-0.6286800	0.4164600	0.1374200	-1.0966600	0.0051100	0.1325600	-0.9022000	-0.1132900	0.1439000	-1.0159400	-0.1218400	0.0925000	-1.3732100	-0.0863000	0.1576300	-0.6594700	-0.1172900	0.2546600	-0.6320300	-0.1052300	0.3301500	-0.7326800	-0.0668000	0.2529600
354	5.8833333	-0.7153200	1.3971000	0.2659700	-0.6909300	1.3927200	0.4564700	-0.6103800	1.0954100	0.5504100	-0.5379900	0.8296200	0.5444200	-0.7082000	1.3933000	0.0645100	-0.7086800	1.0935600	-0.0256600	-0.6875000	0.7989400	-0.0428300	-0.6685700	0.8360000	0.2539000	-0.6654100	0.8331700	0.3706400	-0.6430000	0.4110900	0.3361400	-0.7760000	-0.0552400	0.2909400	-0.6462400	0.8379900	0.1380300	-0.6119100	0.4222200	0.1403300	-1.0119100	-0.0089000	0.1356500	-0.8377600	-0.1159600	0.1443700	-0.9199400	-0.1241100	0.0795300	-1.2687300	-0.1259600	0.1728500	-0.6561600	-0.1155200	0.2548000	-0.6318300	-0.1025900	0.3296600	-0.7106100	-0.0556900	0.2507500
355	5.9000000	-0.7006500	1.3961800	0.2631800	-0.6644600	1.3944000	0.4548700	-0.5893000	1.0975900	0.5471400	-0.5167700	0.8347300	0.5456500	-0.6992600	1.3942500	0.0629500	-0.6988600	1.0944600	-0.0269800	-0.6865600	0.7955300	-0.0428100	-0.6579500	0.8416400	0.2556900	-0.6531900	0.8391500	0.3699300	-0.6365000	0.4124300	0.3369500	-0.7738300	-0.0503200	0.2909900	-0.6357900	0.8415400	0.1357400	-0.5800000	0.4306800	0.1460100	-0.9098000	-0.0157300	0.1372800	-0.7805600	-0.1169700	0.1401600	-0.8101500	-0.1148500	0.0675100	-1.0929200	-0.1173900	0.1638100	-0.6450700	-0.1098700	0.2559800	-0.6300000	-0.0989900	0.3292800	-0.6883400	-0.0435900	0.2466700
356	5.9166667	-0.6852100	1.3947700	0.2618300	-0.6421200	1.3963400	0.4534900	-0.5729700	1.0961500	0.5447300	-0.4765100	0.8392400	0.5465700	-0.6993000	1.3964600	0.0625400	-0.6886300	1.0939500	-0.0296000	-0.6869900	0.7931000	-0.0429100	-0.6510100	0.8442700	0.2568700	-0.6383400	0.8431300	0.3693400	-0.6402100	0.4096400	0.3370000	-0.7642100	-0.0443100	0.2880900	-0.6278300	0.8406800	0.1328600	-0.5297300	0.4415600	0.1548000	-0.8226200	-0.0293200	0.1379600	-0.7288300	-0.1330300	0.1462200	-0.7317500	-0.1163800	0.0653100	-0.9174200	-0.1107300	0.1537400	-0.6140500	-0.0980200	0.2599300	-0.6229400	-0.0919100	0.3293700	-0.6774400	-0.0377600	0.2433700
357	5.9333333	-0.6719000	1.3935400	0.2626700	-0.6279300	1.3977200	0.4537700	-0.5607700	1.0939500	0.5442700	-0.4231700	0.8426300	0.5460000	-0.6991100	1.3978300	0.0632800	-0.6822700	1.0920600	-0.0315700	-0.6882100	0.7914700	-0.0430300	-0.6497200	0.8434900	0.2570600	-0.6266800	0.8433100	0.3688200	-0.6502300	0.4070200	0.3364700	-0.7523800	-0.0418300	0.2839600	-0.6204700	0.8375800	0.1313200	-0.4776500	0.4507800	0.1638800	-0.7721100	-0.0502300	0.1376000	-0.6859200	-0.1536200	0.1597400	-0.6853100	-0.1450800	0.0807100	-0.8186900	-0.1159600	0.1443900	-0.5584100	-0.0762600	0.2673900	-0.6036500	-0.0815500	0.3309500	-0.6810700	-0.0396600	0.2416700
358	5.9500000	-0.6654000	1.3931100	0.2640200	-0.6219000	1.3984900	0.4545800	-0.5506800	1.0940900	0.5449400	-0.3743000	0.8442000	0.5441500	-0.6904800	1.3959300	0.0643900	-0.6812300	1.0882600	-0.0323100	-0.6890400	0.7916100	-0.0431500	-0.6492000	0.8400000	0.2570600	-0.6121000	0.8414000	0.3681800	-0.6588900	0.4073300	0.3362500	-0.7485800	-0.0445200	0.2824500	-0.6097900	0.8340700	0.1315300	-0.4452400	0.4553800	0.1695700	-0.7319900	-0.0730100	0.1407600	-0.6661500	-0.1662800	0.1647700	-0.6652300	-0.1610800	0.0830600	-0.7886600	-0.1281900	0.1377100	-0.4956400	-0.0547600	0.2784400	-0.5771700	-0.0707200	0.3339500	-0.6916400	-0.0437000	0.2417100
359	5.9666667	-0.6653600	1.3931000	0.2647500	-0.6188400	1.3966300	0.4551300	-0.5443000	1.0941700	0.5455200	-0.3427200	0.8458900	0.5421400	-0.6728000	1.3921800	0.0645500	-0.6798600	1.0843400	-0.0319500	-0.6868800	0.7925000	-0.0428000	-0.6439700	0.8340300	0.2576800	-0.5857300	0.8382700	0.3686600	-0.6618000	0.4055200	0.3372900	-0.7591800	-0.0519600	0.2861900	-0.5937800	0.8311600	0.1314400	-0.4352700	0.4538700	0.1717400	-0.6926900	-0.0838400	0.1427200	-0.6552100	-0.2003200	0.1805200	-0.6483600	-0.1867000	0.0914200	-0.7733900	-0.1480000	0.1404500	-0.4633000	-0.0445200	0.2904100	-0.5648200	-0.0658900	0.3363800	-0.7014000	-0.0505000	0.2454800
360	5.9833333	-0.6627100	1.3930600	0.2646000	-0.6112200	1.3938300	0.4556900	-0.5382800	1.0922900	0.5449600	-0.3248200	0.8447300	0.5398000	-0.6510200	1.3890200	0.0629900	-0.6711100	1.0824400	-0.0299200	-0.6792800	0.7922500	-0.0414000	-0.6331200	0.8260000	0.2591600	-0.5493600	0.8347200	0.3710700	-0.6630200	0.4026200	0.3382900	-0.7868600	-0.0554600	0.2918300	-0.5784000	0.8272600	0.1298800	-0.4364100	0.4472000	0.1728500	-0.6550400	-0.1033500	0.1518100	-0.6346600	-0.2307900	0.1989600	-0.6264000	-0.2170900	0.1106900	-0.7508200	-0.1704800	0.1487700	-0.4847800	-0.0412200	0.2963800	-0.5883500	-0.0677000	0.3344300	-0.7271300	-0.0506600	0.2488700
